<svg xmlns="http://www.w3.org/2000/svg" xmlns:xlink="http://www.w3.org/1999/xlink" width="96" zoomAndPan="magnify" viewBox="0 0 72 72" height="96" preserveAspectRatio="xMidYMid meet" version="1.0"><rect x="-7.2" width="86.4" fill="#ffffff" y="-7.2" height="86.4" fill-opacity="1"/><rect x="-7.2" width="86.4" fill="#ffffff" y="-7.2" height="86.4" fill-opacity="1"/><path fill="#005832" d="M 35.476562 11.582031 C 35.929688 11.71875 36.21875 11.996094 36.5625 12.304688 C 36.683594 12.410156 36.800781 12.515625 36.921875 12.621094 C 36.980469 12.671875 37.035156 12.722656 37.097656 12.773438 C 37.363281 13.007812 37.644531 13.226562 37.921875 13.445312 C 38.195312 13.664062 38.460938 13.886719 38.722656 14.113281 C 39.125 14.453125 39.527344 14.785156 39.9375 15.109375 C 40.742188 15.753906 41.535156 16.414062 42.320312 17.078125 C 42.707031 17.40625 43.097656 17.726562 43.496094 18.042969 C 44.292969 18.679688 45.078125 19.332031 45.855469 19.996094 C 46.292969 20.367188 46.738281 20.71875 47.191406 21.070312 C 47.625 21.410156 48.046875 21.769531 48.464844 22.132812 C 48.953125 22.550781 49.457031 22.957031 49.964844 23.351562 C 50.148438 23.496094 50.335938 23.640625 50.519531 23.789062 C 50.578125 23.835938 50.640625 23.878906 50.703125 23.929688 C 50.847656 24.042969 50.988281 24.164062 51.128906 24.289062 C 51.128906 24.347656 51.128906 24.40625 51.128906 24.464844 C 40.859375 24.464844 30.585938 24.464844 20.003906 24.464844 C 20.003906 24.40625 20.003906 24.347656 20.003906 24.289062 C 20.140625 24.160156 20.285156 24.042969 20.433594 23.925781 C 20.523438 23.855469 20.613281 23.78125 20.707031 23.707031 C 20.84375 23.597656 20.84375 23.597656 20.984375 23.488281 C 21.132812 23.363281 21.285156 23.238281 21.4375 23.117188 C 21.519531 23.050781 21.597656 22.984375 21.679688 22.917969 C 21.773438 22.839844 21.867188 22.765625 21.960938 22.6875 C 22.015625 22.640625 22.074219 22.59375 22.132812 22.546875 C 22.789062 22.011719 23.445312 21.472656 24.089844 20.921875 C 24.476562 20.59375 24.867188 20.273438 25.265625 19.957031 C 26.070312 19.316406 26.863281 18.65625 27.648438 17.988281 C 28.035156 17.660156 28.425781 17.339844 28.824219 17.027344 C 29.347656 16.605469 29.867188 16.175781 30.386719 15.746094 C 30.585938 15.582031 30.78125 15.421875 30.980469 15.257812 C 31.5625 14.78125 32.140625 14.300781 32.714844 13.8125 C 33.183594 13.414062 33.664062 13.03125 34.144531 12.648438 C 34.386719 12.457031 34.625 12.261719 34.867188 12.070312 C 34.984375 11.976562 35.101562 11.882812 35.21875 11.789062 C 35.304688 11.722656 35.390625 11.652344 35.476562 11.582031 Z M 35.476562 11.582031 " fill-opacity="1" fill-rule="nonzero"/><path fill="#005832" d="M 35.476562 45.96875 C 35.824219 46.046875 36.035156 46.222656 36.289062 46.460938 C 36.746094 46.878906 37.222656 47.265625 37.703125 47.65625 C 38.277344 48.121094 38.847656 48.59375 39.414062 49.074219 C 39.769531 49.375 40.128906 49.667969 40.496094 49.957031 C 40.769531 50.175781 41.035156 50.402344 41.304688 50.632812 C 41.703125 50.972656 42.105469 51.300781 42.519531 51.628906 C 43.320312 52.273438 44.113281 52.929688 44.898438 53.597656 C 45.285156 53.925781 45.679688 54.246094 46.078125 54.5625 C 46.601562 54.980469 47.121094 55.414062 47.640625 55.839844 C 47.835938 56.003906 48.035156 56.167969 48.234375 56.328125 C 48.871094 56.851562 49.503906 57.375 50.128906 57.910156 C 50.375 58.121094 50.625 58.316406 50.890625 58.5 C 50.96875 58.558594 51.050781 58.613281 51.128906 58.671875 C 51.128906 58.730469 51.128906 58.789062 51.128906 58.851562 C 40.859375 58.851562 30.585938 58.851562 20.003906 58.851562 C 20.003906 58.792969 20.003906 58.734375 20.003906 58.671875 C 20.183594 58.519531 20.363281 58.378906 20.550781 58.238281 C 21.007812 57.886719 21.453125 57.527344 21.886719 57.152344 C 22.320312 56.777344 22.757812 56.410156 23.203125 56.046875 C 23.535156 55.777344 23.867188 55.507812 24.195312 55.234375 C 24.324219 55.128906 24.457031 55.019531 24.585938 54.910156 C 24.6875 54.832031 24.6875 54.832031 24.785156 54.746094 C 25.042969 54.539062 25.296875 54.328125 25.550781 54.117188 C 25.679688 54.015625 25.804688 53.910156 25.929688 53.808594 C 26.246094 53.546875 26.566406 53.285156 26.886719 53.019531 C 27.46875 52.542969 28.050781 52.0625 28.625 51.574219 C 29.011719 51.246094 29.402344 50.925781 29.800781 50.613281 C 30.605469 49.96875 31.398438 49.308594 32.183594 48.644531 C 32.566406 48.316406 32.957031 47.996094 33.355469 47.683594 C 33.773438 47.347656 34.1875 47.003906 34.597656 46.664062 C 34.660156 46.609375 34.722656 46.558594 34.789062 46.507812 C 34.84375 46.460938 34.898438 46.414062 34.957031 46.367188 C 35.011719 46.324219 35.066406 46.277344 35.121094 46.234375 C 35.214844 46.15625 35.214844 46.15625 35.308594 46.078125 C 35.363281 46.042969 35.421875 46.003906 35.476562 45.96875 Z M 35.476562 45.96875 " fill-opacity="1" fill-rule="nonzero"/><path fill="#005832" d="M 35.476562 28.730469 C 35.820312 28.875 36.078125 29.105469 36.355469 29.347656 C 36.761719 29.695312 37.175781 30.035156 37.601562 30.363281 C 38.117188 30.761719 38.605469 31.179688 39.097656 31.605469 C 39.460938 31.925781 39.832031 32.230469 40.210938 32.53125 C 41.015625 33.171875 41.804688 33.828125 42.585938 34.492188 C 42.972656 34.824219 43.367188 35.144531 43.765625 35.457031 C 44.289062 35.878906 44.808594 36.3125 45.328125 36.738281 C 45.585938 36.949219 45.839844 37.160156 46.097656 37.371094 C 46.222656 37.476562 46.347656 37.578125 46.472656 37.679688 C 46.792969 37.945312 47.109375 38.207031 47.429688 38.46875 C 48.0625 38.984375 48.6875 39.503906 49.308594 40.035156 C 49.667969 40.339844 50.035156 40.632812 50.402344 40.925781 C 50.648438 41.121094 50.894531 41.320312 51.128906 41.523438 C 51.128906 41.554688 51.128906 41.582031 51.128906 41.613281 C 40.859375 41.613281 30.585938 41.613281 20.003906 41.613281 C 20.660156 40.957031 21.359375 40.363281 22.078125 39.777344 C 22.371094 39.542969 22.660156 39.304688 22.949219 39.0625 C 23.082031 38.957031 23.210938 38.847656 23.34375 38.742188 C 23.441406 38.660156 23.441406 38.660156 23.542969 38.578125 C 23.796875 38.367188 24.050781 38.15625 24.308594 37.945312 C 24.433594 37.84375 24.558594 37.742188 24.683594 37.636719 C 25.003906 37.375 25.320312 37.113281 25.640625 36.851562 C 26.222656 36.371094 26.804688 35.894531 27.378906 35.40625 C 27.765625 35.078125 28.15625 34.757812 28.554688 34.441406 C 29.359375 33.796875 30.152344 33.140625 30.9375 32.472656 C 31.324219 32.144531 31.714844 31.824219 32.113281 31.507812 C 32.636719 31.089844 33.15625 30.660156 33.671875 30.230469 C 33.882812 30.058594 34.097656 29.882812 34.308594 29.707031 C 34.378906 29.652344 34.445312 29.59375 34.519531 29.535156 C 34.652344 29.425781 34.785156 29.316406 34.921875 29.207031 C 34.980469 29.15625 35.042969 29.105469 35.101562 29.054688 C 35.15625 29.011719 35.210938 28.96875 35.265625 28.921875 C 35.386719 28.824219 35.386719 28.824219 35.476562 28.730469 Z M 35.476562 28.730469 " fill-opacity="1" fill-rule="nonzero"/></svg>