<svg width="153" height="67" viewBox="0 0 153 67" fill="none" xmlns="http://www.w3.org/2000/svg">
<path d="M76.8609 43.8247C76.8917 43.8005 76.9224 43.7763 76.9542 43.7513C78.002 42.9437 79.0059 42.6032 80.3293 42.6908C80.8613 42.7715 81.3575 42.9623 81.7258 43.3662C81.9407 43.7454 81.9272 44.2392 81.8225 44.6535C81.6952 44.9511 81.5272 45.1244 81.2287 45.2507C80.8354 45.349 80.4003 45.3706 80.0187 45.2241C79.7622 45.0074 79.6702 44.7077 79.5491 44.4003C79.436 44.1312 79.436 44.1312 79.2041 43.9747C78.7589 43.909 78.3446 44.0203 77.9672 44.2609C77.8391 44.3564 77.7155 44.4541 77.5946 44.5584C77.6363 44.8141 77.7138 45.027 77.8197 45.263C78.3393 46.4945 78.4065 47.8357 77.9448 49.1005C77.337 50.5117 76.2304 51.3616 74.8393 51.9168C73.969 52.2224 73.098 52.2619 72.1858 52.2976C70.7946 52.3092 70.7946 52.3092 69.5948 52.8876C69.5001 53.077 69.5263 53.1636 69.5906 53.3628C69.9138 53.6456 70.362 53.7302 70.7743 53.8003C70.8236 53.8088 70.8729 53.8173 70.9237 53.8261C71.4265 53.9087 71.9302 53.9482 72.4383 53.9817C77.5735 54.3254 77.5735 54.3254 79.1287 55.5639C79.1841 55.6056 79.2396 55.6473 79.2967 55.6903C79.8838 56.1886 80.1986 56.8852 80.3293 57.6316C80.4318 59.1961 80.2631 60.6447 79.2094 61.8759C78.6631 62.4609 78.0999 62.8715 77.3945 63.2344C77.3087 63.2804 77.3087 63.2804 77.2212 63.3274C76.821 63.5272 76.4008 63.6549 75.9729 63.7805C75.8888 63.8055 75.8888 63.8055 75.8029 63.8311C74.869 64.0941 73.9509 64.1263 72.9881 64.1223C72.9276 64.1222 72.8671 64.1221 72.8047 64.122C71.9219 64.119 71.0547 64.1021 70.1909 63.9014C70.1419 63.8903 70.093 63.8792 70.0425 63.8678C68.7349 63.5588 67.4562 62.9295 66.7259 61.7586C66.1723 60.7374 66.0459 59.6022 66.3163 58.4706C66.6323 57.4332 67.3007 56.5621 68.2566 56.0308C68.3006 56.0308 68.3447 56.0308 68.39 56.0308C68.39 55.9868 68.39 55.9428 68.39 55.8974C68.3267 55.885 68.2634 55.8726 68.1982 55.8599C67.7294 55.7262 67.2448 55.3787 66.9893 54.9636C66.7707 54.4122 66.7586 53.7548 66.9643 53.1961C67.2674 52.5605 67.7425 52.204 68.3929 51.9494C68.9188 51.7757 69.4416 51.6912 69.9908 51.6286C69.9311 51.6011 69.8715 51.5736 69.81 51.5452C69.2805 51.2949 68.829 51.0218 68.39 50.6281C68.3436 50.5902 68.2972 50.5523 68.2493 50.5132C67.6814 50.0124 67.2762 49.1783 67.1894 48.427C67.1823 48.3797 67.1751 48.3323 67.1678 48.2835C66.9789 46.8876 67.2697 45.5398 68.1097 44.4091C69.0641 43.2127 70.5649 42.6279 72.0543 42.4407C73.8706 42.3141 75.4464 42.5955 76.8609 43.8247ZM71.0038 44.275C70.118 45.3812 70.0384 46.9308 70.1448 48.2897C70.2502 49.1989 70.4802 50.1478 71.2122 50.7574C71.855 51.2093 72.5472 51.2562 73.3172 51.1305C73.9208 50.9723 74.3843 50.6578 74.708 50.1224C75.4676 48.6846 75.4464 46.6923 75.01 45.1504C74.7952 44.5354 74.5144 44.0091 73.9261 43.6913C72.9172 43.2498 71.7565 43.4684 71.0038 44.275ZM69.6448 56.5185C69.5417 56.6655 69.5417 56.6655 69.4572 56.8312C69.4254 56.8906 69.3936 56.95 69.3608 57.0112C68.8924 57.9709 68.7993 59.0194 69.124 60.044C69.3003 60.503 69.5301 60.8683 69.8574 61.2334C69.9005 61.2834 69.9436 61.3335 69.9879 61.385C70.9199 62.3983 72.2761 62.7587 73.6082 62.8488C74.7771 62.883 75.8981 62.5173 76.7973 61.7605C77.4768 61.0987 77.9131 60.3257 77.9489 59.37C77.9332 58.7725 77.7506 58.2599 77.3278 57.8317C75.9335 56.6576 73.9693 56.5197 72.2294 56.381C72.176 56.3766 72.1226 56.3723 72.0675 56.3678C71.5116 56.3235 70.9554 56.2889 70.3978 56.2786C70.3131 56.2768 70.2285 56.275 70.1413 56.2731C69.9002 56.3003 69.8125 56.3476 69.6448 56.5185Z" fill="#005832"/>
<path d="M64.9882 1.93727C65.327 2.03922 65.5441 2.24749 65.8011 2.47921C65.8908 2.55851 65.9805 2.63772 66.0703 2.71682C66.1136 2.75509 66.157 2.79335 66.2016 2.83277C66.4025 3.0077 66.6117 3.17165 66.8209 3.3364C67.0248 3.49991 67.2238 3.66874 67.4228 3.83822C67.7222 4.09308 68.0253 4.34205 68.3334 4.5865C68.9365 5.06968 69.5313 5.56359 70.1199 6.06432C70.4097 6.31077 70.7034 6.55116 71.0014 6.7876C71.5991 7.26645 72.1888 7.75562 72.7713 8.25291C73.0978 8.53161 73.4329 8.79749 73.772 9.06073C74.0994 9.31643 74.4145 9.5848 74.7286 9.85655C75.0948 10.173 75.4711 10.4752 75.8526 10.7731C75.9916 10.8818 76.1302 10.991 76.2688 11.1002C76.314 11.1351 76.3591 11.1701 76.4056 11.2062C76.5153 11.2929 76.6217 11.3838 76.7274 11.4753C76.7274 11.5194 76.7274 11.5634 76.7274 11.6087C69.0236 11.6087 61.3197 11.6087 53.3825 11.6087C53.3825 11.5647 53.3825 11.5207 53.3825 11.4753C53.4858 11.3808 53.5937 11.2914 53.7035 11.2044C53.7711 11.1502 53.8388 11.096 53.9085 11.0402C54.0113 10.9585 54.0113 10.9585 54.1162 10.875C54.2303 10.7822 54.3442 10.6891 54.458 10.5957C54.5182 10.5465 54.5784 10.4972 54.6404 10.4464C54.7102 10.3892 54.78 10.332 54.8499 10.2747C54.8924 10.2399 54.9349 10.205 54.9787 10.1691C55.4706 9.76558 55.9619 9.36142 56.4465 8.94909C56.7362 8.70263 57.0299 8.46224 57.3279 8.22581C57.9311 7.74263 58.5258 7.24872 59.1145 6.74799C59.4045 6.50126 59.6986 6.26059 59.9969 6.02394C60.3913 5.70793 60.7796 5.38453 61.1693 5.06281C61.3175 4.94059 61.4659 4.81861 61.6144 4.69671C62.0508 4.33831 62.4862 3.97902 62.9164 3.6131C63.268 3.31413 63.626 3.0243 63.9877 2.73767C64.1685 2.59331 64.3491 2.44871 64.5297 2.30412C64.6174 2.23394 64.7051 2.16377 64.7928 2.0936C64.8573 2.04201 64.9218 1.99042 64.9882 1.93727Z" fill="#005832"/>
<path d="M64.9882 27.7501C65.2463 27.8112 65.4066 27.942 65.5969 28.1211C65.9385 28.4345 66.2955 28.7257 66.6557 29.0174C67.0874 29.3681 67.5149 29.7232 67.9386 30.0835C68.2051 30.3095 68.4766 30.5283 68.7505 30.7453C68.9556 30.9109 69.1564 31.081 69.3571 31.2518C69.6565 31.5067 69.9596 31.7557 70.2677 32.0001C70.8708 32.4833 71.4656 32.9772 72.0542 33.4779C72.3443 33.7247 72.6384 33.9653 72.9367 34.202C73.331 34.518 73.7194 34.8414 74.1091 35.1631C74.2573 35.2853 74.4057 35.4073 74.5542 35.5292C75.0313 35.9211 75.5062 36.315 75.9752 36.7165C76.1603 36.8739 76.3479 37.0214 76.5481 37.1589C76.6073 37.2016 76.6664 37.2442 76.7274 37.2882C76.7274 37.3322 76.7274 37.3762 76.7274 37.4216C69.0236 37.4216 61.3197 37.4216 53.3825 37.4216C53.3825 37.3775 53.3825 37.3335 53.3825 37.2882C53.5163 37.1746 53.6509 37.0683 53.791 36.963C54.1342 36.6995 54.4687 36.4293 54.7957 36.1459C55.1206 35.8647 55.4488 35.5887 55.7824 35.3176C56.031 35.1153 56.2784 34.9116 56.5257 34.7077C56.6238 34.6268 56.722 34.546 56.8201 34.4651C56.894 34.4042 56.894 34.4042 56.9695 34.3421C57.1609 34.1843 57.3523 34.0267 57.5438 33.869C57.6378 33.7916 57.7317 33.7143 57.8257 33.6369C58.0651 33.4396 58.3046 33.2425 58.5444 33.0457C58.9814 32.6867 59.4174 32.327 59.8482 31.9605C60.1379 31.7141 60.4316 31.4737 60.7296 31.2372C61.3327 30.7541 61.9275 30.2601 62.5162 29.7594C62.8051 29.5136 63.0979 29.2738 63.3952 29.0382C63.7092 28.7864 64.0188 28.5293 64.3287 28.2727C64.3756 28.2339 64.4225 28.1952 64.4708 28.1552C64.5126 28.1206 64.5545 28.0859 64.5976 28.0502C64.6385 28.0172 64.6793 27.9842 64.7214 27.9502C64.7901 27.8931 64.7901 27.8931 64.8601 27.8349C64.9024 27.8069 64.9447 27.7789 64.9882 27.7501Z" fill="#005832"/>
<path d="M64.9882 14.8103C65.2452 14.9191 65.4391 15.0914 65.6469 15.273C65.952 15.5359 66.262 15.7897 66.5807 16.0359C66.9659 16.3345 67.3349 16.6488 67.7016 16.9698C67.9749 17.2088 68.253 17.4394 68.5382 17.6643C69.141 18.1442 69.7331 18.6382 70.32 19.1375C70.6101 19.3842 70.9042 19.6249 71.2025 19.8615C71.5972 20.1778 71.986 20.5015 72.376 20.8235C72.5678 20.9817 72.7597 21.1398 72.9516 21.2978C73.0455 21.3751 73.1394 21.4524 73.2333 21.5298C73.4727 21.727 73.7123 21.9241 73.9521 22.121C74.4249 22.5094 74.8957 22.8997 75.3617 23.2962C75.6312 23.525 75.9058 23.7468 76.1826 23.9667C76.367 24.1132 76.5495 24.2606 76.7274 24.4151C76.7274 24.4371 76.7274 24.4591 76.7274 24.4818C69.0236 24.4818 61.3197 24.4818 53.3825 24.4818C53.8753 23.989 54.3981 23.5437 54.9389 23.1048C55.1573 22.9269 55.3745 22.7475 55.5919 22.5683C55.69 22.4875 55.7882 22.4066 55.8863 22.3258C55.9602 22.2648 55.9602 22.2648 56.0357 22.2027C56.2271 22.045 56.4185 21.8873 56.61 21.7296C56.704 21.6523 56.7979 21.5749 56.8919 21.4975C57.1313 21.3002 57.3708 21.1031 57.6106 20.9063C58.0476 20.5473 58.4836 20.1876 58.9144 19.8211C59.2041 19.5747 59.4978 19.3343 59.7958 19.0979C60.3989 18.6147 60.9937 18.1208 61.5824 17.62C61.8724 17.3733 62.1665 17.1326 62.4648 16.896C62.858 16.5809 63.2452 16.2585 63.6337 15.9378C63.7925 15.8068 63.9514 15.676 64.1104 15.5453C64.1625 15.5025 64.2146 15.4597 64.2682 15.4156C64.3688 15.3329 64.4694 15.2502 64.5701 15.1675C64.6152 15.1304 64.6603 15.0932 64.7068 15.055C64.7468 15.0221 64.7867 14.9893 64.8279 14.9555C64.9192 14.8813 64.9192 14.8813 64.9882 14.8103Z" fill="#005832"/>
<path d="M27.8365 43.4912C29.1032 44.5721 29.6883 46.26 29.8279 47.8822C29.9681 49.9788 29.5828 52.1983 28.17 53.8297C27.2153 54.913 25.9567 55.6134 24.4988 55.7109C24.2855 55.7175 24.073 55.7192 23.8596 55.7181C23.7837 55.7179 23.7078 55.7176 23.6296 55.7173C22.8324 55.7067 22.114 55.5789 21.3493 55.3594C21.223 55.3232 21.223 55.3232 21.0942 55.2863C21.0301 55.2678 20.9659 55.2494 20.8998 55.2304C20.9054 55.9123 20.9117 56.5942 20.9189 57.2761C20.9223 57.5928 20.9253 57.9095 20.9279 58.2262C20.9304 58.5324 20.9335 58.8386 20.937 59.1448C20.9382 59.261 20.9392 59.3773 20.94 59.4935C20.891 60.7128 20.891 60.7128 21.3667 61.767C21.8254 62.0966 22.4226 62.1735 22.9667 62.2688C23.0261 62.2793 23.0855 62.2898 23.1467 62.3006C23.1992 62.3088 23.2518 62.3171 23.3059 62.3256C23.4344 62.3673 23.4344 62.3673 23.5678 62.5674C23.5904 62.7804 23.5918 62.9188 23.4964 63.1122C23.3411 63.2596 23.2386 63.2654 23.0285 63.2646C22.9822 63.2629 22.9359 63.2611 22.8882 63.2594C22.8136 63.2581 22.8136 63.2581 22.7374 63.2568C22.3218 63.246 21.9096 63.2067 21.4959 63.1677C20.0945 63.0379 18.6917 63.0649 17.2922 63.2036C16.9992 63.2323 16.7086 63.2516 16.4142 63.2594C16.3437 63.2613 16.2732 63.2632 16.2006 63.2651C16.0307 63.2344 16.0307 63.2344 15.9061 63.1143C15.7915 62.8918 15.8369 62.7378 15.8973 62.5007C15.9668 62.3923 15.9668 62.3923 16.0974 62.3006C16.2811 62.2607 16.4579 62.23 16.6435 62.2047C17.1461 62.1256 17.5485 62.05 17.9233 61.6753C18.1617 61.2901 18.1844 60.9386 18.182 60.499C18.1823 60.4092 18.1823 60.4092 18.1826 60.3177C18.1832 60.1175 18.1827 59.9174 18.1823 59.7173C18.1825 59.5736 18.1827 59.4299 18.183 59.2863C18.1836 58.8961 18.1834 58.5059 18.183 58.1158C18.1826 57.7068 18.183 57.2979 18.1832 56.889C18.1834 56.2016 18.1831 55.5142 18.1825 54.8269C18.1817 54.0339 18.182 53.241 18.1827 52.4481C18.1833 51.7664 18.1834 51.0846 18.183 50.4029C18.1828 49.9962 18.1828 49.5895 18.1833 49.1828C18.1836 48.7997 18.1834 48.4167 18.1826 48.0336C18.1824 47.8936 18.1825 47.7537 18.1828 47.6138C18.2449 45.9498 18.2449 45.9498 17.5856 44.4959C17.1728 44.2388 16.7709 44.1391 16.2873 44.1186C16.1641 44.0915 16.1641 44.0915 16.0307 43.8914C16.013 43.7622 16.013 43.7622 16.014 43.6246C16.0137 43.5792 16.0133 43.5338 16.013 43.4871C16.0307 43.3578 16.0307 43.3578 16.1641 43.1577C16.3662 43.1148 16.3662 43.1148 16.6263 43.0892C16.6961 43.0818 16.6961 43.0818 16.7674 43.0743C16.8673 43.0638 16.9673 43.0536 17.0673 43.0438C17.327 43.0183 17.5863 42.9899 17.8456 42.961C17.8967 42.9553 17.9477 42.9497 18.0003 42.9438C18.4556 42.8916 18.902 42.8114 19.3479 42.7054C19.7017 42.6242 20.0713 42.5654 20.4329 42.6241C20.6518 42.7934 20.6717 42.946 20.708 43.2161C20.7183 43.2925 20.7286 43.369 20.7393 43.4477C20.7804 43.8173 20.81 44.1873 20.8331 44.5584C20.8648 44.5123 20.8648 44.5123 20.8972 44.4651C21.643 43.4226 22.622 42.7155 23.8929 42.4699C25.3379 42.2724 26.7053 42.5528 27.8365 43.4912ZM21.5001 45.4255C20.8859 46.2471 20.8688 47.0733 20.8708 48.0583C20.8705 48.1846 20.8702 48.3108 20.8698 48.437C20.8692 48.7005 20.8693 48.9641 20.87 49.2276C20.8708 49.5642 20.8694 49.9007 20.8675 50.2372C20.8663 50.4975 20.8663 50.7578 20.8667 51.0182C20.8667 51.1422 20.8663 51.2663 20.8654 51.3903C20.8416 52.2829 20.8416 52.2829 21.1666 53.096C21.1955 53.1429 21.2245 53.1898 21.2544 53.2381C21.6652 53.8753 22.3885 54.2843 23.1009 54.4967C23.7892 54.6312 24.4849 54.576 25.0896 54.202C26.1503 53.4335 26.5254 52.25 26.7403 51.0115C26.8367 50.3738 26.8588 49.7472 26.8571 49.1033C26.8569 48.9362 26.8585 48.7692 26.8601 48.6021C26.865 47.3425 26.7288 45.8916 25.8629 44.9044C25.3302 44.4031 24.6256 44.2689 23.9177 44.2776C23.0014 44.3371 22.1152 44.7396 21.5001 45.4255Z" fill="#005832"/>
<path d="M148.497 36.1543C148.607 36.2396 148.607 36.2396 148.697 36.3544C148.717 36.5508 148.724 36.7332 148.723 36.9298C148.723 36.9893 148.724 37.0488 148.724 37.1101C148.725 37.3104 148.725 37.5107 148.724 37.711C148.725 37.8543 148.726 37.9976 148.726 38.1409C148.728 38.5313 148.728 38.9216 148.728 39.312C148.729 39.7214 148.73 40.1309 148.732 40.5403C148.734 41.318 148.736 42.0956 148.737 42.8732C148.739 44.2607 148.743 45.6481 148.747 47.0356C148.749 47.5216 148.75 48.0076 148.75 48.4936C148.751 48.7987 148.752 49.1037 148.752 49.4088C148.753 49.5485 148.753 49.6882 148.753 49.8279C148.753 50.5563 148.762 51.2843 148.785 52.0124C148.787 52.1088 148.787 52.1088 148.789 52.2072C148.811 52.7921 148.881 53.4345 149.307 53.8719C149.718 54.1758 150.241 54.1876 150.733 54.2028C150.787 54.2118 150.842 54.2207 150.898 54.2299C151.03 54.428 151.051 54.4738 151.052 54.6968C151.054 54.7649 151.054 54.7649 151.055 54.8344C151.024 55.0037 150.963 55.0551 150.831 55.1637C150.636 55.1907 150.448 55.2071 150.252 55.2179C149.506 55.2724 148.781 55.4095 148.049 55.5559C146.67 55.8298 146.67 55.8298 146.391 55.6598C146.198 55.3325 146.143 55.0142 146.12 54.6384C146.115 54.5616 146.11 54.4847 146.105 54.4055C146.102 54.3476 146.099 54.2896 146.095 54.2299C146.066 54.2537 146.037 54.2776 146.007 54.3021C145.216 54.9434 144.4 55.5611 143.361 55.6973C143.314 55.7045 143.267 55.7118 143.219 55.7192C142.108 55.8698 140.895 55.7497 139.892 55.2304C139.794 55.1823 139.794 55.1823 139.694 55.1332C138.393 54.443 137.703 53.2174 137.279 51.8454C136.716 49.7604 136.947 47.428 138.007 45.5446C138.187 45.2367 138.39 44.96 138.625 44.6918C138.664 44.643 138.704 44.5942 138.744 44.5439C139.737 43.3506 141.247 42.695 142.76 42.4908C143.022 42.4722 143.282 42.4685 143.544 42.4699C143.614 42.4702 143.684 42.4705 143.756 42.4708C144.574 42.4826 145.273 42.6432 146.029 42.9576C146.237 40.4319 146.237 40.4319 145.494 38.1821C145.066 37.8803 144.551 37.834 144.046 37.7732C143.659 37.7182 143.659 37.7182 143.493 37.561C143.402 37.3676 143.401 37.2325 143.427 37.0214C143.497 36.8791 143.497 36.8791 143.628 36.7546C143.807 36.7206 143.962 36.7036 144.143 36.6965C144.249 36.6899 144.356 36.6834 144.462 36.6769C144.546 36.6725 144.546 36.6725 144.631 36.668C145.768 36.6067 146.865 36.4757 147.969 36.1841C148.151 36.1414 148.31 36.1384 148.497 36.1543ZM140.878 44.8607C140.09 45.9525 140.001 47.4304 140.005 48.7324C140.005 48.885 140.003 49.0376 140.002 49.1902C139.998 50.077 140.092 50.9701 140.401 51.8079C140.426 51.8771 140.426 51.8771 140.452 51.9476C140.776 52.7904 141.299 53.5959 142.135 53.9965C142.928 54.2727 143.891 54.1168 144.651 53.805C144.836 53.7131 145.008 53.6131 145.182 53.5016C145.289 53.4333 145.398 53.3683 145.508 53.3036C145.808 53.087 146.041 52.8941 146.142 52.5271C146.22 52.0119 146.206 51.4916 146.199 50.972C146.2 50.8029 146.2 50.6337 146.201 50.4645C146.202 50.1108 146.2 49.7573 146.196 49.4036C146.191 48.9965 146.192 48.5896 146.196 48.1825C146.199 47.7886 146.199 47.3947 146.196 47.0007C146.196 46.8342 146.196 46.6676 146.197 46.501C146.244 45.516 146.244 45.516 145.846 44.658C145.12 43.9735 144.221 43.7102 143.248 43.7372C142.285 43.7897 141.505 44.1145 140.878 44.8607Z" fill="#005832"/>
<path d="M86.7325 36.2209C87.0164 36.5241 86.9619 36.9256 86.9614 37.3148C86.9624 37.43 86.9624 37.43 86.9634 37.5476C86.9655 37.8013 86.9661 38.055 86.9667 38.3087C86.9678 38.4847 86.969 38.6607 86.9703 38.8367C86.9732 39.2524 86.9751 39.6681 86.9767 40.0839C86.9785 40.5573 86.9814 41.0307 86.9844 41.5042C86.9906 42.4778 86.9954 43.4514 86.9992 44.425C87.0397 44.3797 87.0802 44.3343 87.1219 44.2876C87.1754 44.2279 87.2289 44.1682 87.284 44.1066C87.3633 44.018 87.3633 44.018 87.4442 43.9275C88.2645 43.0323 89.2948 42.5313 90.5078 42.4657C91.8931 42.422 92.9605 42.7459 94.0298 43.6585C95.1453 44.7303 95.7758 46.414 95.8212 47.9444C95.8254 48.1762 95.8257 48.4078 95.8245 48.6396C95.8243 48.6882 95.8242 48.7369 95.8241 48.787C95.8211 49.5074 95.7936 50.1959 95.6035 50.8949C95.5808 50.9788 95.5581 51.0627 95.5347 51.1492C95.262 52.0484 94.8362 52.8659 94.2028 53.5629C94.1487 53.6232 94.0947 53.6834 94.0389 53.7455C92.7221 55.1395 90.8588 55.6975 88.9859 55.7726C87.9301 55.7904 86.8562 55.7115 85.8195 55.5097C85.7702 55.5003 85.7208 55.4909 85.67 55.4812C85.3406 55.4114 85.0274 55.3064 84.7112 55.1916C84.6681 55.1761 84.625 55.1606 84.5807 55.1446C84.4752 55.1066 84.3699 55.0685 84.2646 55.0303C84.2643 54.9531 84.264 54.8759 84.2637 54.7964C84.257 52.9614 84.2499 51.1264 84.2425 49.2914C84.2416 49.0652 84.2406 48.8389 84.2397 48.6127C84.2395 48.5677 84.2394 48.5226 84.2392 48.4762C84.2362 47.7486 84.2335 47.021 84.2309 46.2933C84.2282 45.5458 84.2252 44.7982 84.2221 44.0507C84.2203 43.6312 84.2187 43.2117 84.2173 42.7922C84.2159 42.3968 84.2143 42.0014 84.2125 41.6061C84.2119 41.4615 84.2114 41.3169 84.211 41.1723C84.3072 39.5798 84.3072 39.5798 83.7685 38.1636C83.4036 37.899 82.8988 37.8346 82.4595 37.7926C82.2636 37.755 82.2636 37.755 82.1343 37.6467C82.0356 37.4261 82.0374 37.2601 82.0635 37.0213C82.1323 36.9111 82.1323 36.9111 82.2636 36.8212C82.4418 36.7892 82.6086 36.7685 82.7883 36.7551C82.896 36.7453 83.0038 36.7355 83.1115 36.7257C83.1678 36.7209 83.2241 36.7161 83.2821 36.7111C84.1296 36.6382 84.9612 36.5588 85.7825 36.326C86.1113 36.2332 86.39 36.1784 86.7325 36.2209ZM87.5095 45.4803C86.8982 46.2875 86.8643 47.0206 86.8752 48.001C86.8753 48.1388 86.8751 48.2766 86.8748 48.4144C86.8747 48.7015 86.8763 48.9885 86.879 49.2756C86.8824 49.6424 86.8823 50.0091 86.881 50.3758C86.8803 50.6597 86.8812 50.9436 86.8827 51.2275C86.8833 51.3627 86.8834 51.4979 86.883 51.6331C86.8828 51.8222 86.8848 52.0112 86.8873 52.2003C86.8868 52.2553 86.8863 52.3103 86.8859 52.367C86.8972 52.8897 87.1235 53.2779 87.462 53.6671C88.0375 54.2061 88.7393 54.5194 89.5172 54.5842C90.3799 54.555 91.1455 54.2297 91.7386 53.6017C93.037 51.8783 93.0529 49.2825 92.8012 47.2333C92.6659 46.2773 92.4084 45.2767 91.6073 44.6603C90.3352 43.818 88.4643 44.3759 87.5095 45.4803Z" fill="#005832"/>
<path d="M11.4445 36.7926C11.5066 36.811 11.5687 36.8294 11.6326 36.8483C11.7541 36.8848 11.8752 36.9225 11.9958 36.9617C12.3549 37.0723 12.7321 37.1634 13.0959 37.0213C13.1726 36.8904 13.1726 36.8904 13.2293 36.7545C13.379 36.6797 13.4637 36.6789 13.6295 36.6795C13.6996 36.6793 13.6996 36.6793 13.7712 36.679C13.8962 36.6878 13.8962 36.6878 14.0296 36.7545C14.02 36.8657 14.0103 36.9769 14.0005 37.088C13.9923 37.1809 13.9923 37.1809 13.9841 37.2756C13.9692 37.4255 13.9501 37.575 13.928 37.724C13.8779 38.1206 13.8835 38.519 13.8837 38.9181C13.8837 39.0426 13.8837 39.0426 13.8836 39.1695C13.8867 39.7162 13.9241 40.2432 13.9992 40.7839C14.0425 41.1244 14.0853 41.483 14.0296 41.8237C13.7837 41.9877 13.6532 41.9779 13.3627 41.9571C13.1286 41.8011 13.1227 41.7506 13.0526 41.4887C13.0245 41.3871 13.0245 41.3871 12.9959 41.2834C12.9766 41.2113 12.9573 41.1393 12.9374 41.065C12.4694 39.379 12.4694 39.379 11.2546 38.1907C10.855 37.9968 10.4667 37.8819 10.0277 37.8217C9.94873 37.8107 9.94873 37.8107 9.86821 37.7993C8.65148 37.6541 7.48261 37.7635 6.4574 38.4718C5.91165 38.9086 5.59683 39.5343 5.50015 40.224C5.46788 41.0194 5.6493 41.709 6.13823 42.3365C6.79128 43.0423 7.76524 43.4469 8.63113 43.8289C9.17885 44.071 9.7187 44.3277 10.2552 44.5936C10.3408 44.636 10.4264 44.6782 10.5122 44.7201C11.3941 45.1522 12.2114 45.6552 12.9625 46.2926C13.013 46.3335 13.0636 46.3743 13.1157 46.4164C14.0626 47.2082 14.7582 48.3923 14.8967 49.6276C15.0036 51.2079 14.8911 52.551 13.8415 53.8026C12.6808 55.084 10.9918 55.6933 9.29396 55.8307C7.65979 55.9086 6.17923 55.7472 4.72086 54.9719C4.45469 54.8339 4.26201 54.7765 3.95798 54.8302C3.66894 54.9954 3.5308 55.2273 3.37175 55.5102C3.29098 55.6306 3.29098 55.6306 3.09088 55.764C2.81909 55.7866 2.72203 55.7849 2.49058 55.6306C2.41851 55.254 2.49494 54.845 2.5388 54.4668C2.69521 53.0973 2.6559 51.7251 2.51977 50.3556C2.45164 49.6221 2.45164 49.6221 2.57188 49.4332C2.72086 49.3424 2.81694 49.3341 2.99083 49.3358C3.04242 49.3353 3.09401 49.3348 3.14716 49.3342C3.327 49.3675 3.37517 49.422 3.49108 49.5609C3.5403 49.7481 3.58062 49.9298 3.61614 50.1195C3.91343 51.5617 4.58108 52.895 5.80812 53.7606C7.01053 54.5109 8.30501 54.7506 9.70354 54.4422C10.2804 54.281 10.8807 53.9965 11.295 53.5629C11.339 53.5629 11.383 53.5629 11.4284 53.5629C11.4463 53.5251 11.4643 53.4872 11.4828 53.4483C11.5651 53.2897 11.6598 53.1453 11.7577 52.9959C12.2433 52.1886 12.2394 51.351 12.0307 50.4582C11.6296 49.1152 10.4714 48.2377 9.29142 47.5966C8.36724 47.1129 7.4206 46.6663 6.47199 46.2327C5.77633 45.9136 5.15496 45.5735 4.55828 45.092C4.49603 45.0419 4.43378 44.9918 4.36964 44.9401C3.50262 44.2016 2.90111 43.1418 2.80506 41.9973C2.79737 41.7612 2.79675 41.5263 2.79907 41.2901C2.7983 41.2114 2.79752 41.1326 2.79673 41.0515C2.80054 39.8963 3.16284 38.955 3.97257 38.1344C5.83706 36.3328 9.06802 36.0794 11.4445 36.7926Z" fill="#005832"/>
<path d="M61.8594 43.3284C62.7633 44.0867 63.1461 45.2122 63.2541 46.3593C63.2638 46.577 63.2651 46.7944 63.2657 47.0123C63.2662 47.0754 63.2666 47.1385 63.2671 47.2035C63.268 47.3397 63.2688 47.4759 63.2695 47.6121C63.2706 47.8284 63.2721 48.0447 63.2738 48.261C63.2785 48.8758 63.2825 49.4905 63.2859 50.1053C63.2881 50.4821 63.2908 50.859 63.294 51.2359C63.295 51.3787 63.2958 51.5215 63.2964 51.6643C63.2233 53.0328 63.2233 53.0328 63.721 54.2299C64.0619 54.4785 64.3991 54.5589 64.8101 54.6429C64.9971 54.6995 65.0759 54.7389 65.1884 54.8969C65.2144 55.1882 65.2193 55.3174 65.055 55.5639C64.5593 55.6422 64.0252 55.5496 63.5293 55.4972C62.4454 55.3852 61.381 55.4076 60.2979 55.5155C59.1931 55.6248 59.1931 55.6248 58.8519 55.5639C58.7277 55.4438 58.7277 55.4438 58.6518 55.2971C58.6518 55.0595 58.6518 55.0595 58.7185 54.8302C58.9506 54.6581 59.1678 54.5923 59.4481 54.5342C59.8895 54.4274 59.8895 54.4274 60.2526 54.1632C60.4884 53.7205 60.5583 53.3145 60.5529 52.819C60.5533 52.7549 60.5536 52.6908 60.554 52.6248C60.5548 52.4148 60.5537 52.2049 60.5525 51.9949C60.5525 51.8474 60.5526 51.6999 60.5528 51.5523C60.5529 51.2437 60.5521 50.935 60.5506 50.6263C60.5487 50.2334 60.5489 49.8406 60.5497 49.4477C60.5502 49.143 60.5496 48.8383 60.5488 48.5337C60.5485 48.389 60.5485 48.2443 60.5488 48.0996C60.5499 46.9236 60.5201 45.8544 59.865 44.8377C59.4014 44.3742 58.8816 44.2226 58.2391 44.2041C57.3352 44.2219 56.4931 44.4912 55.8208 45.1137C55.1741 45.8107 54.9732 46.6897 54.9737 47.6162C54.9734 47.6742 54.9732 47.7322 54.973 47.7919C54.9724 47.9829 54.9722 48.174 54.9722 48.365C54.9719 48.4986 54.9717 48.6322 54.9715 48.7658C54.9711 49.0458 54.971 49.3258 54.971 49.6058C54.971 49.9628 54.9701 50.3198 54.9689 50.6768C54.9682 50.9529 54.9681 51.2289 54.9681 51.505C54.968 51.6365 54.9677 51.768 54.9672 51.8995C54.8944 53.1842 54.8944 53.1842 55.3836 54.2966C55.7205 54.4935 56.0949 54.6061 56.4674 54.7161C56.5842 54.7635 56.5842 54.7635 56.6509 54.8969C56.6744 55.3285 56.6744 55.3285 56.5175 55.5639C56.0649 55.6403 55.582 55.5507 55.1293 55.4972C54.0593 55.3743 53.0017 55.4119 51.9319 55.5158C51.5298 55.554 51.131 55.5785 50.7271 55.5806C50.68 55.5812 50.633 55.5818 50.5845 55.5824C50.2642 55.5805 50.2642 55.5805 50.1143 55.4305C50.0966 55.2908 50.0966 55.2908 50.0976 55.1303C50.0973 55.0774 50.0969 55.0244 50.0966 54.9698C50.1143 54.8302 50.1143 54.8302 50.2477 54.6968C50.4933 54.638 50.7388 54.5883 50.987 54.5418C51.3442 54.4692 51.6121 54.3684 51.9152 54.1632C52.113 53.8467 52.19 53.5596 52.1913 53.1902C52.1917 53.1291 52.1921 53.068 52.1925 53.005C52.1926 52.9384 52.1926 52.8718 52.1927 52.8032C52.193 52.7327 52.1934 52.6621 52.1937 52.5895C52.1947 52.3557 52.1951 52.1219 52.1955 51.8881C52.1959 51.7251 52.1963 51.562 52.1967 51.3989C52.1974 51.0565 52.1978 50.714 52.198 50.3715C52.1984 49.9351 52.2 49.4987 52.2019 49.0623C52.2031 48.725 52.2034 48.3877 52.2036 48.0505C52.2038 47.8898 52.2043 47.729 52.2052 47.5683C52.258 46.0201 52.258 46.0201 51.7534 44.5905C51.4025 44.2605 50.9801 44.2487 50.5241 44.2064C50.3144 44.1582 50.3144 44.1582 50.1851 44.0334C50.0842 43.8312 50.1207 43.7046 50.181 43.4912C50.3445 43.3277 50.4098 43.3341 50.6359 43.3128C50.7025 43.3059 50.7692 43.299 50.8378 43.2919C50.91 43.2848 50.9821 43.2776 51.0564 43.2703C51.6639 43.2043 52.2595 43.1139 52.8573 42.9868C52.9561 42.9658 52.9561 42.9658 53.0569 42.9444C53.3217 42.8865 53.584 42.8261 53.844 42.7492C54.1182 42.6713 54.2991 42.6582 54.5832 42.6908C54.8374 42.9386 54.9232 43.1306 54.9378 43.4772C54.9406 43.5399 54.9434 43.6027 54.9462 43.6674C54.9489 43.733 54.9515 43.7987 54.9542 43.8664C54.9585 43.9657 54.9585 43.9657 54.9629 44.067C54.97 44.2308 54.9768 44.3946 54.9834 44.5584C55.009 44.5234 55.0347 44.4885 55.0611 44.4524C55.841 43.3987 56.8454 42.7067 58.1446 42.4574C59.4571 42.2754 60.7893 42.5391 61.8594 43.3284Z" fill="#005832"/>
<path d="M121.383 43.4884C122.11 44.1483 122.452 45.1335 122.55 46.0925C122.56 46.3213 122.561 46.5499 122.562 46.7789C122.562 46.8463 122.563 46.9137 122.563 46.9832C122.564 47.129 122.565 47.2748 122.566 47.4206C122.567 47.6516 122.568 47.8827 122.57 48.1138C122.575 48.7706 122.579 49.4274 122.582 50.0842C122.584 50.4865 122.587 50.8888 122.59 51.2911C122.591 51.444 122.592 51.5969 122.593 51.7498C122.593 51.964 122.595 52.1782 122.597 52.3924C122.597 52.455 122.597 52.5176 122.597 52.582C122.602 53.0477 122.626 53.4998 122.88 53.9006C123.187 54.0949 123.464 54.0859 123.818 54.0298C123.966 53.9714 124.099 53.9026 124.237 53.8237C124.401 53.7367 124.505 53.718 124.685 53.763C124.843 53.9089 124.843 53.9089 124.951 54.0965C124.931 54.4883 124.674 54.6775 124.405 54.9344C123.697 55.5486 122.931 55.7547 122.004 55.7202C121.397 55.6654 120.915 55.387 120.483 54.9636C120.082 54.4603 120.082 54.4603 120.082 54.2299C120.031 54.267 119.98 54.3042 119.928 54.3425C118.374 55.4493 116.819 55.8974 114.89 55.6665C114.153 55.5014 113.475 55.121 113.05 54.4881C112.515 53.5775 112.39 52.4845 112.625 51.4577C112.947 50.3789 113.741 49.6811 114.705 49.1565C116.308 48.3888 118.074 48.32 119.816 48.2269C119.821 47.9318 119.824 47.6366 119.827 47.3415C119.828 47.2415 119.829 47.1416 119.831 47.0417C119.848 46.0225 119.795 44.9113 119.104 44.0936C118.616 43.6389 117.986 43.5388 117.34 43.5483C116.668 43.5819 115.977 43.7807 115.501 44.2791C115.357 44.6285 115.277 44.911 115.418 45.2749C115.479 45.4001 115.54 45.525 115.603 45.6496C115.719 45.9141 115.724 46.0732 115.68 46.3593C115.465 46.7822 115.132 47.0778 114.68 47.2264C114.107 47.2865 113.693 47.2367 113.229 46.8888C112.885 46.4394 112.833 45.9401 112.895 45.3875C113.086 44.5159 113.63 43.8272 114.368 43.3391C116.388 42.086 119.462 41.9804 121.383 43.4884ZM118.744 49.3733C118.696 49.3822 118.647 49.3911 118.598 49.4002C117.537 49.6055 116.435 49.938 115.747 50.8282C115.372 51.4501 115.255 52.0207 115.377 52.7443C115.495 53.1905 115.689 53.5925 116.083 53.8529C116.87 54.2407 117.704 54.0794 118.507 53.825C119.04 53.6195 119.57 53.3234 119.882 52.8292C119.911 52.6598 119.911 52.6598 119.905 52.4744C119.905 52.4036 119.905 52.3329 119.905 52.26C119.904 52.184 119.903 52.1081 119.902 52.0298C119.902 51.9518 119.901 51.8737 119.901 51.7932C119.9 51.5438 119.897 51.2944 119.895 51.045C119.894 50.8759 119.893 50.7068 119.892 50.5377C119.89 50.1232 119.887 49.7086 119.882 49.2941C119.788 49.2932 119.693 49.2926 119.599 49.2921C119.546 49.2917 119.494 49.2914 119.44 49.291C119.203 49.2957 118.976 49.3305 118.744 49.3733Z" fill="#005832"/>
<path d="M108.677 43.8914C108.731 43.9392 108.784 43.9869 108.84 44.036C110 45.1231 110.538 46.6204 110.619 48.1896C110.679 50.1336 110.379 52.2125 109.01 53.6963C108.955 53.7573 108.901 53.8182 108.844 53.881C108.414 54.337 107.96 54.6664 107.409 54.9636C107.352 54.995 107.295 55.0264 107.236 55.0587C105.642 55.8556 103.525 55.9583 101.842 55.4237C100.332 54.877 99.2767 53.9043 98.559 52.4704C97.7351 50.6554 97.5554 48.2842 98.2549 46.401C98.891 44.7931 99.947 43.6622 101.523 42.941C103.768 42.0204 106.82 42.1995 108.677 43.8914ZM102.34 44.2249C102.275 44.2778 102.275 44.2778 102.208 44.3318C101.229 45.1929 100.978 46.6618 100.873 47.8934C100.851 48.2753 100.85 48.6574 100.852 49.0398C100.852 49.0905 100.852 49.1412 100.852 49.1934C100.859 50.8466 101.014 52.5775 102.228 53.8255C102.877 54.4416 103.583 54.6656 104.467 54.6465C105.249 54.5847 105.954 54.2909 106.494 53.7114C106.945 53.1286 107.25 52.4807 107.409 51.762C107.419 51.7186 107.429 51.6753 107.439 51.6306C107.871 49.6247 107.919 46.7868 106.891 44.9474C106.44 44.2819 105.868 43.7478 105.075 43.5579C104.845 43.5303 104.619 43.5261 104.387 43.5288C104.326 43.5293 104.264 43.5298 104.201 43.5303C103.466 43.548 102.892 43.7315 102.34 44.2249Z" fill="#005832"/>
<path d="M135.311 42.7367C135.792 43.1509 136.118 43.539 136.178 44.183C136.194 44.6553 136.191 44.9862 135.89 45.3588C135.59 45.6733 135.314 45.7883 134.89 45.8257C134.52 45.8252 134.18 45.8067 133.889 45.5589C133.611 45.2485 133.576 44.9464 133.535 44.5454C133.478 44.3151 133.413 44.2309 133.222 44.0915C132.812 43.999 132.432 44.0537 132.067 44.2583C131.322 44.7745 130.805 45.6717 130.621 46.5594C130.602 46.7781 130.602 46.9958 130.603 47.2152C130.602 47.3114 130.602 47.3114 130.602 47.4096C130.601 47.6207 130.601 47.8318 130.601 48.043C130.601 48.1904 130.6 48.3378 130.6 48.4853C130.599 48.794 130.599 49.1027 130.6 49.4114C130.6 49.806 130.599 50.2007 130.598 50.5953C130.597 50.8997 130.596 51.2041 130.597 51.5086C130.597 51.654 130.596 51.7995 130.596 51.9449C130.595 52.1488 130.595 52.3525 130.596 52.5564C130.596 52.6159 130.595 52.6753 130.594 52.7366C130.598 53.2085 130.674 53.6346 130.963 54.0173C131.442 54.3818 131.961 54.4841 132.547 54.5676C132.683 54.587 132.819 54.6072 132.955 54.6283C133.044 54.6409 133.044 54.6409 133.135 54.6538C133.311 54.703 133.381 54.7498 133.489 54.8969C133.533 55.3043 133.533 55.3043 133.406 55.4769C133.258 55.5871 133.176 55.5888 132.992 55.5881C132.902 55.5882 132.902 55.5882 132.811 55.5883C132.713 55.5865 132.713 55.5865 132.614 55.5847C132.545 55.5842 132.477 55.5836 132.407 55.583C131.911 55.5755 131.419 55.5413 130.925 55.4972C129.833 55.4004 128.758 55.3976 127.665 55.4972C127.165 55.5428 126.667 55.5826 126.164 55.5931C126.112 55.5953 126.059 55.5976 126.005 55.6C125.859 55.6011 125.859 55.6011 125.618 55.5639C125.482 55.4107 125.482 55.4107 125.418 55.2304C125.452 54.9844 125.452 54.9844 125.552 54.7635C125.812 54.6271 126.086 54.5883 126.373 54.5384C126.85 54.4479 127.24 54.3611 127.578 53.9881C127.813 53.4996 127.839 52.9759 127.836 52.4412C127.836 52.3795 127.836 52.3178 127.836 52.2542C127.836 52.0523 127.836 51.8503 127.835 51.6484C127.835 51.5065 127.835 51.3647 127.835 51.2228C127.835 50.9261 127.834 50.6294 127.833 50.3327C127.832 49.9548 127.832 49.5769 127.832 49.199C127.832 48.9061 127.831 48.6132 127.831 48.3203C127.831 48.1811 127.831 48.0419 127.831 47.9027C127.938 46.0926 127.938 46.0926 127.28 44.5136C126.844 44.2109 126.24 44.1916 125.729 44.1332C125.552 44.0915 125.552 44.0915 125.418 43.8914C125.388 43.4697 125.388 43.4697 125.552 43.2244C125.73 43.1901 125.897 43.1683 126.077 43.1536C126.13 43.1483 126.183 43.1431 126.238 43.1378C126.465 43.1158 126.692 43.0962 126.919 43.0768C127.598 43.0185 128.255 42.9399 128.918 42.7789C129.26 42.6986 129.603 42.6438 129.954 42.6908C130.02 42.7348 130.086 42.7789 130.154 42.8242C130.183 43.0231 130.183 43.0231 130.188 43.275C130.189 43.3192 130.19 43.3634 130.192 43.409C130.195 43.5503 130.198 43.6917 130.2 43.8331C130.202 43.9289 130.204 44.0247 130.207 44.1204C130.212 44.3554 130.217 44.5903 130.221 44.8252C130.257 44.7656 130.293 44.7059 130.331 44.6444C130.937 43.6657 131.64 42.8005 132.807 42.5116C133.653 42.3514 134.528 42.3378 135.311 42.7367Z" fill="#005832"/>
<path d="M40.9304 42.7367C41.4118 43.1509 41.7378 43.539 41.7975 44.183C41.8135 44.6553 41.8111 44.9862 41.5099 45.3588C41.2094 45.6733 40.9337 45.7883 40.5094 45.8257C40.1401 45.8252 39.7994 45.8067 39.5089 45.5589C39.2303 45.2485 39.1954 44.9464 39.1546 44.5454C39.0981 44.3151 39.0327 44.2309 38.8419 44.0915C38.432 43.999 38.0521 44.0537 37.6872 44.2583C36.9414 44.7745 36.4249 45.6717 36.2406 46.5594C36.2218 46.7781 36.2217 46.9958 36.2223 47.2152C36.2218 47.3114 36.2218 47.3114 36.2213 47.4096C36.2203 47.6207 36.2204 47.8318 36.2205 48.043C36.2203 48.1904 36.22 48.3378 36.2197 48.4853C36.2192 48.794 36.2192 49.1027 36.2196 49.4114C36.2199 49.806 36.2188 50.2007 36.2173 50.5953C36.2163 50.8997 36.2162 51.2041 36.2164 51.5086C36.2164 51.654 36.2161 51.7995 36.2154 51.9449C36.2146 52.1488 36.215 52.3525 36.2158 52.5564C36.2153 52.6159 36.2148 52.6753 36.2142 52.7366C36.2182 53.2085 36.2933 53.6346 36.5824 54.0173C37.0615 54.3818 37.5809 54.4841 38.1666 54.5676C38.3027 54.587 38.4387 54.6072 38.5746 54.6283C38.6637 54.6409 38.6637 54.6409 38.7546 54.6538C38.9309 54.703 39.0011 54.7498 39.1087 54.8969C39.1524 55.3043 39.1524 55.3043 39.0256 55.4769C38.8774 55.5871 38.7957 55.5888 38.6121 55.5881C38.5222 55.5882 38.5222 55.5882 38.4304 55.5883C38.3328 55.5865 38.3328 55.5865 38.2333 55.5847C38.1653 55.5842 38.0972 55.5836 38.0272 55.583C37.5309 55.5755 37.0392 55.5413 36.5449 55.4972C35.4523 55.4004 34.3775 55.3976 33.285 55.4972C32.7848 55.5428 32.2865 55.5826 31.7842 55.5931C31.7316 55.5953 31.679 55.5976 31.6248 55.6C31.4786 55.6011 31.4786 55.6011 31.2381 55.5639C31.1019 55.4107 31.1019 55.4107 31.038 55.2304C31.0714 54.9844 31.0714 54.9844 31.1714 54.7635C31.4315 54.6271 31.7054 54.5883 31.9927 54.5384C32.4699 54.4479 32.86 54.3611 33.1974 53.9881C33.4326 53.4996 33.459 52.9759 33.4554 52.4412C33.4555 52.3795 33.4557 52.3178 33.4558 52.2542C33.4561 52.0523 33.4553 51.8503 33.4546 51.6484C33.4545 51.5065 33.4545 51.3647 33.4545 51.2228C33.4544 50.9261 33.4538 50.6294 33.4529 50.3327C33.4518 49.9548 33.4516 49.5769 33.4516 49.199C33.4516 48.9061 33.4512 48.6132 33.4507 48.3203C33.4505 48.1811 33.4504 48.0419 33.4503 47.9027C33.558 46.0926 33.558 46.0926 32.8996 44.5136C32.4642 44.2109 31.8598 44.1916 31.3483 44.1332C31.1714 44.0915 31.1714 44.0915 31.038 43.8914C31.0079 43.4697 31.0079 43.4697 31.1714 43.2244C31.3499 43.1901 31.5164 43.1683 31.6967 43.1536C31.75 43.1483 31.8032 43.1431 31.8581 43.1378C32.0849 43.1158 32.3118 43.0962 32.5388 43.0768C33.2174 43.0185 33.8747 42.9399 34.5378 42.7789C34.8798 42.6986 35.2223 42.6438 35.5736 42.6908C35.6396 42.7348 35.7057 42.7789 35.7737 42.8242C35.8026 43.0231 35.8026 43.0231 35.8078 43.275C35.809 43.3192 35.8102 43.3634 35.8115 43.409C35.8151 43.5503 35.8173 43.6917 35.8196 43.8331C35.8218 43.9289 35.8241 44.0247 35.8265 44.1204C35.8321 44.3554 35.8366 44.5903 35.8404 44.8252C35.8768 44.7656 35.9132 44.7059 35.9506 44.6444C36.5567 43.6657 37.2597 42.8005 38.4269 42.5116C39.2731 42.3514 40.1474 42.3378 40.9304 42.7367Z" fill="#005832"/>
<path d="M46.7125 42.6242C46.9204 42.7906 47.0322 42.8921 47.0877 43.1562C47.0877 43.2303 47.0878 43.3044 47.0878 43.3807C47.089 43.5087 47.089 43.5087 47.0903 43.6394C47.0895 43.7335 47.0887 43.8276 47.0879 43.9217C47.0882 44.0212 47.0887 44.1207 47.0894 44.2202C47.0904 44.4343 47.0904 44.6484 47.0896 44.8625C47.0883 45.2014 47.0893 45.5404 47.0906 45.8793C47.0924 46.4159 47.0926 46.9525 47.0922 47.4891C47.0915 48.4488 47.0931 49.4084 47.0958 50.368C47.0967 50.7045 47.0967 51.0409 47.0962 51.3774C47.0959 51.5874 47.0962 51.7975 47.0966 52.0075C47.0967 52.1044 47.0966 52.2012 47.0961 52.2981C47.0749 53.3296 47.0749 53.3296 47.5129 54.2299C47.7952 54.5023 48.1852 54.5454 48.5548 54.6313C48.6336 54.6512 48.6336 54.6512 48.714 54.6715C48.7619 54.6828 48.8098 54.6941 48.8592 54.7058C48.9803 54.7635 48.9803 54.7635 49.0644 54.8876C49.1401 55.1069 49.1005 55.2752 49.047 55.4972C48.8173 55.6504 48.7698 55.6415 48.5056 55.6145C48.4347 55.608 48.3638 55.6015 48.2907 55.5949C48.2129 55.5874 48.1351 55.5799 48.0549 55.5723C46.429 55.4375 44.7913 55.4406 43.1675 55.6014C42.4377 55.6711 42.4377 55.6711 42.1769 55.4972C42.1242 55.2782 42.088 55.1072 42.1514 54.8881C42.2874 54.7044 42.4181 54.7035 42.6397 54.6635C43.413 54.5272 43.413 54.5272 44.0487 54.1049C44.3203 53.6668 44.3306 53.2802 44.3286 52.7788C44.3288 52.7073 44.3291 52.6357 44.3293 52.562C44.3299 52.3258 44.3295 52.0897 44.3291 51.8535C44.3291 51.6886 44.3293 51.5238 44.3294 51.359C44.3296 51.0133 44.3293 50.6676 44.3287 50.322C44.328 49.8808 44.3284 49.4396 44.3292 48.9984C44.3297 48.6577 44.3295 48.3171 44.3292 47.9764C44.3291 47.8139 44.3292 47.6513 44.3295 47.4888C44.416 45.9854 44.416 45.9854 43.9111 44.6251C43.5467 44.3284 43.1841 44.2743 42.7352 44.1968C42.3424 44.1211 42.3424 44.1211 42.1728 43.9649C42.076 43.748 42.1226 43.5836 42.1769 43.3579C42.3683 43.1665 42.5754 43.1843 42.8333 43.1624C42.9419 43.1521 43.0506 43.1418 43.1592 43.1314C43.2161 43.1262 43.273 43.121 43.3315 43.1156C44.3637 43.0202 45.7229 42.5054 46.7125 42.6242Z" fill="#005832"/>
<path d="M46.4348 37.0414C46.7369 37.2787 46.9257 37.594 47.046 37.9552C47.0888 38.4673 47.1054 38.936 46.7792 39.3559C46.4793 39.6805 46.1914 39.8658 45.7428 39.9038C45.1381 39.9246 44.7016 39.7833 44.229 39.4038C43.9251 39.1079 43.8296 38.8037 43.8153 38.3845C43.8358 37.9045 44.0028 37.5444 44.3262 37.1933C44.909 36.6759 45.7738 36.6657 46.4348 37.0414Z" fill="#005832"/>
</svg>
